solid v3d.csg
  facet normal 0.5773502692000000 -0.5773502692000000 0.5773502692000000
    outer loop
      vertex 0.0000000000000000 -5.2573111212000000 8.5065080835000000
      vertex 5.2573111212000000 -8.5065080835000000 0.0000000000000000
      vertex 8.5065080835000000 0.0000000000000000 5.2573111212000000
    endloop
  endfacet
  facet normal 0.9341723590000001 -0.3568220898000000 0.0000000000000000
    outer loop
      vertex 8.5065080835000000 0.0000000000000000 -5.2573111212000000
      vertex 8.5065080835000000 0.0000000000000000 5.2573111212000000
      vertex 5.2573111212000000 -8.5065080835000000 0.0000000000000000
    endloop
  endfacet
  facet normal 0.3568220898000000 0.0000000000000000 -0.9341723590000001
    outer loop
      vertex 0.0000000000000000 -5.2573111212000000 -8.5065080835000000
      vertex 0.0000000000000000 5.2573111212000000 -8.5065080835000000
      vertex 8.5065080835000000 0.0000000000000000 -5.2573111212000000
    endloop
  endfacet
  facet normal 0.5773502692000000 -0.5773502692000000 -0.5773502692000000
    outer loop
      vertex 0.0000000000000000 -5.2573111212000000 -8.5065080835000000
      vertex 8.5065080835000000 0.0000000000000000 -5.2573111212000000
      vertex 5.2573111212000000 -8.5065080835000000 0.0000000000000000
    endloop
  endfacet
  facet normal -0.3568220898000000 0.0000000000000000 0.9341723590000001
    outer loop
      vertex 0.0000000000000000 5.2573111212000000 8.5065080835000000
      vertex -8.5065080835000000 0.0000000000000000 5.2573111212000000
      vertex 0.0000000000000000 -5.2573111212000000 8.5065080835000000
    endloop
  endfacet
  facet normal 0.3568220898000000 0.0000000000000000 0.9341723590000001
    outer loop
      vertex 0.0000000000000000 5.2573111212000000 8.5065080835000000
      vertex 0.0000000000000000 -5.2573111212000000 8.5065080835000000
      vertex 8.5065080835000000 0.0000000000000000 5.2573111212000000
    endloop
  endfacet
  facet normal -0.5773502692000000 0.5773502692000000 0.5773502692000000
    outer loop
      vertex 0.0000000000000000 5.2573111212000000 8.5065080835000000
      vertex -5.2573111212000000 8.5065080835000000 0.0000000000000000
      vertex -8.5065080835000000 0.0000000000000000 5.2573111212000000
    endloop
  endfacet
  facet normal 0.0000000000000000 -0.9341723590000001 -0.3568220898000000
    outer loop
      vertex -5.2573111212000000 -8.5065080835000000 0.0000000000000000
      vertex 0.0000000000000000 -5.2573111212000000 -8.5065080835000000
      vertex 5.2573111212000000 -8.5065080835000000 0.0000000000000000
    endloop
  endfacet
  facet normal 0.0000000000000000 -0.9341723590000001 0.3568220898000000
    outer loop
      vertex -5.2573111212000000 -8.5065080835000000 0.0000000000000000
      vertex 5.2573111212000000 -8.5065080835000000 0.0000000000000000
      vertex 0.0000000000000000 -5.2573111212000000 8.5065080835000000
    endloop
  endfacet
  facet normal -0.5773502692000000 -0.5773502692000000 0.5773502692000000
    outer loop
      vertex -5.2573111212000000 -8.5065080835000000 0.0000000000000000
      vertex 0.0000000000000000 -5.2573111212000000 8.5065080835000000
      vertex -8.5065080835000000 0.0000000000000000 5.2573111212000000
    endloop
  endfacet
  facet normal 0.0000000000000000 0.9341723590000001 0.3568220898000000
    outer loop
      vertex 5.2573111212000000 8.5065080835000000 0.0000000000000000
      vertex -5.2573111212000000 8.5065080835000000 0.0000000000000000
      vertex 0.0000000000000000 5.2573111212000000 8.5065080835000000
    endloop
  endfacet
  facet normal 0.5773502692000000 0.5773502692000000 0.5773502692000000
    outer loop
      vertex 5.2573111212000000 8.5065080835000000 0.0000000000000000
      vertex 0.0000000000000000 5.2573111212000000 8.5065080835000000
      vertex 8.5065080835000000 0.0000000000000000 5.2573111212000000
    endloop
  endfacet
  facet normal 0.9341723590000001 0.3568220898000000 0.0000000000000000
    outer loop
      vertex 5.2573111212000000 8.5065080835000000 0.0000000000000000
      vertex 8.5065080835000000 0.0000000000000000 5.2573111212000000
      vertex 8.5065080835000000 0.0000000000000000 -5.2573111212000000
    endloop
  endfacet
  facet normal 0.5773502692000000 0.5773502692000000 -0.5773502692000000
    outer loop
      vertex 5.2573111212000000 8.5065080835000000 0.0000000000000000
      vertex 8.5065080835000000 0.0000000000000000 -5.2573111212000000
      vertex 0.0000000000000000 5.2573111212000000 -8.5065080835000000
    endloop
  endfacet
  facet normal 0.0000000000000000 0.9341723590000001 -0.3568220898000000
    outer loop
      vertex 5.2573111212000000 8.5065080835000000 0.0000000000000000
      vertex 0.0000000000000000 5.2573111212000000 -8.5065080835000000
      vertex -5.2573111212000000 8.5065080835000000 0.0000000000000000
    endloop
  endfacet
  facet normal -0.5773502692000000 -0.5773502692000000 -0.5773502692000000
    outer loop
      vertex -8.5065080835000000 0.0000000000000000 -5.2573111212000000
      vertex 0.0000000000000000 -5.2573111212000000 -8.5065080835000000
      vertex -5.2573111212000000 -8.5065080835000000 0.0000000000000000
    endloop
  endfacet
  facet normal -0.9341723590000001 -0.3568220898000000 0.0000000000000000
    outer loop
      vertex -8.5065080835000000 0.0000000000000000 -5.2573111212000000
      vertex -5.2573111212000000 -8.5065080835000000 0.0000000000000000
      vertex -8.5065080835000000 0.0000000000000000 5.2573111212000000
    endloop
  endfacet
  facet normal -0.9341723590000001 0.3568220898000000 0.0000000000000000
    outer loop
      vertex -8.5065080835000000 0.0000000000000000 -5.2573111212000000
      vertex -8.5065080835000000 0.0000000000000000 5.2573111212000000
      vertex -5.2573111212000000 8.5065080835000000 0.0000000000000000
    endloop
  endfacet
  facet normal -0.5773502692000000 0.5773502692000000 -0.5773502692000000
    outer loop
      vertex -8.5065080835000000 0.0000000000000000 -5.2573111212000000
      vertex -5.2573111212000000 8.5065080835000000 0.0000000000000000
      vertex 0.0000000000000000 5.2573111212000000 -8.5065080835000000
    endloop
  endfacet
  facet normal -0.3568220898000000 0.0000000000000000 -0.9341723590000001
    outer loop
      vertex -8.5065080835000000 0.0000000000000000 -5.2573111212000000
      vertex 0.0000000000000000 5.2573111212000000 -8.5065080835000000
      vertex 0.0000000000000000 -5.2573111212000000 -8.5065080835000000
    endloop
  endfacet
endsolid v3d.csg
