solid v3d.csg
  facet normal 0.5773502691896257 -0.5773502691896257 0.5773502691896258
    outer loop
      vertex 0.0 -5.257311121191337 8.5065080835204
      vertex 5.257311121191337 -8.5065080835204 0.0
      vertex 8.5065080835204 0.0 5.257311121191337
    endloop
  endfacet
  facet normal 0.9341723589627158 -0.3568220897730898 0.0
    outer loop
      vertex 8.5065080835204 0.0 -5.257311121191337
      vertex 8.5065080835204 0.0 5.257311121191337
      vertex 5.257311121191337 -8.5065080835204 0.0
    endloop
  endfacet
  facet normal 0.3568220897730898 0.0 -0.9341723589627158
    outer loop
      vertex 0.0 -5.257311121191337 -8.5065080835204
      vertex 0.0 5.257311121191337 -8.5065080835204
      vertex 8.5065080835204 0.0 -5.257311121191337
    endloop
  endfacet
  facet normal 0.5773502691896257 -0.5773502691896258 -0.5773502691896257
    outer loop
      vertex 0.0 -5.257311121191337 -8.5065080835204
      vertex 8.5065080835204 0.0 -5.257311121191337
      vertex 5.257311121191337 -8.5065080835204 0.0
    endloop
  endfacet
  facet normal -0.3568220897730898 0.0 0.9341723589627158
    outer loop
      vertex 0.0 5.257311121191337 8.5065080835204
      vertex -8.5065080835204 0.0 5.257311121191337
      vertex 0.0 -5.257311121191337 8.5065080835204
    endloop
  endfacet
  facet normal 0.3568220897730898 0.0 0.9341723589627158
    outer loop
      vertex 0.0 5.257311121191337 8.5065080835204
      vertex 0.0 -5.257311121191337 8.5065080835204
      vertex 8.5065080835204 0.0 5.257311121191337
    endloop
  endfacet
  facet normal -0.5773502691896257 0.5773502691896257 0.5773502691896258
    outer loop
      vertex 0.0 5.257311121191337 8.5065080835204
      vertex -5.257311121191337 8.5065080835204 0.0
      vertex -8.5065080835204 0.0 5.257311121191337
    endloop
  endfacet
  facet normal 0.0 -0.9341723589627158 -0.3568220897730898
    outer loop
      vertex -5.257311121191337 -8.5065080835204 0.0
      vertex 0.0 -5.257311121191337 -8.5065080835204
      vertex 5.257311121191337 -8.5065080835204 0.0
    endloop
  endfacet
  facet normal 0.0 -0.9341723589627158 0.3568220897730898
    outer loop
      vertex -5.257311121191337 -8.5065080835204 0.0
      vertex 5.257311121191337 -8.5065080835204 0.0
      vertex 0.0 -5.257311121191337 8.5065080835204
    endloop
  endfacet
  facet normal -0.5773502691896258 -0.5773502691896257 0.5773502691896257
    outer loop
      vertex -5.257311121191337 -8.5065080835204 0.0
      vertex 0.0 -5.257311121191337 8.5065080835204
      vertex -8.5065080835204 0.0 5.257311121191337
    endloop
  endfacet
  facet normal 0.0 0.9341723589627158 0.3568220897730898
    outer loop
      vertex 5.257311121191337 8.5065080835204 0.0
      vertex -5.257311121191337 8.5065080835204 0.0
      vertex 0.0 5.257311121191337 8.5065080835204
    endloop
  endfacet
  facet normal 0.5773502691896258 0.5773502691896257 0.5773502691896257
    outer loop
      vertex 5.257311121191337 8.5065080835204 0.0
      vertex 0.0 5.257311121191337 8.5065080835204
      vertex 8.5065080835204 0.0 5.257311121191337
    endloop
  endfacet
  facet normal 0.9341723589627158 0.3568220897730898 0.0
    outer loop
      vertex 5.257311121191337 8.5065080835204 0.0
      vertex 8.5065080835204 0.0 5.257311121191337
      vertex 8.5065080835204 0.0 -5.257311121191337
    endloop
  endfacet
  facet normal 0.5773502691896257 0.5773502691896258 -0.5773502691896257
    outer loop
      vertex 5.257311121191337 8.5065080835204 0.0
      vertex 8.5065080835204 0.0 -5.257311121191337
      vertex 0.0 5.257311121191337 -8.5065080835204
    endloop
  endfacet
  facet normal 0.0 0.9341723589627158 -0.3568220897730898
    outer loop
      vertex 5.257311121191337 8.5065080835204 0.0
      vertex 0.0 5.257311121191337 -8.5065080835204
      vertex -5.257311121191337 8.5065080835204 0.0
    endloop
  endfacet
  facet normal -0.5773502691896258 -0.5773502691896257 -0.5773502691896257
    outer loop
      vertex -8.5065080835204 0.0 -5.257311121191337
      vertex 0.0 -5.257311121191337 -8.5065080835204
      vertex -5.257311121191337 -8.5065080835204 0.0
    endloop
  endfacet
  facet normal -0.9341723589627158 -0.3568220897730898 0.0
    outer loop
      vertex -8.5065080835204 0.0 -5.257311121191337
      vertex -5.257311121191337 -8.5065080835204 0.0
      vertex -8.5065080835204 0.0 5.257311121191337
    endloop
  endfacet
  facet normal -0.9341723589627158 0.3568220897730898 0.0
    outer loop
      vertex -8.5065080835204 0.0 -5.257311121191337
      vertex -8.5065080835204 0.0 5.257311121191337
      vertex -5.257311121191337 8.5065080835204 0.0
    endloop
  endfacet
  facet normal -0.5773502691896257 0.5773502691896257 -0.5773502691896258
    outer loop
      vertex -8.5065080835204 0.0 -5.257311121191337
      vertex -5.257311121191337 8.5065080835204 0.0
      vertex 0.0 5.257311121191337 -8.5065080835204
    endloop
  endfacet
  facet normal -0.3568220897730898 0.0 -0.9341723589627158
    outer loop
      vertex -8.5065080835204 0.0 -5.257311121191337
      vertex 0.0 5.257311121191337 -8.5065080835204
      vertex 0.0 -5.257311121191337 -8.5065080835204
    endloop
  endfacet
endsolid v3d.csg
