solid v3d.csg
  facet normal -0.8164965809277259 0.0 -0.5773502691896257
    outer loop
      vertex -7.0710678118654755 7.0710678118654755 0.0
      vertex 0.0 0.0 -10.0
      vertex -7.0710678118654755 -7.0710678118654755 0.0
    endloop
  endfacet
  facet normal -0.8164965809277259 0.0 0.5773502691896257
    outer loop
      vertex -7.0710678118654755 7.0710678118654755 0.0
      vertex -7.0710678118654755 -7.0710678118654755 0.0
      vertex 0.0 0.0 10.0
    endloop
  endfacet
  facet normal 0.0 -0.8164965809277259 0.5773502691896257
    outer loop
      vertex 7.0710678118654755 -7.0710678118654755 0.0
      vertex 0.0 0.0 10.0
      vertex -7.0710678118654755 -7.0710678118654755 0.0
    endloop
  endfacet
  facet normal 0.0 -0.8164965809277259 -0.5773502691896258
    outer loop
      vertex 7.0710678118654755 -7.0710678118654755 0.0
      vertex -7.0710678118654755 -7.0710678118654755 0.0
      vertex 0.0 0.0 -10.0
    endloop
  endfacet
  facet normal 0.8164965809277259 0.0 0.5773502691896257
    outer loop
      vertex 7.0710678118654755 7.0710678118654755 0.0
      vertex 0.0 0.0 10.0
      vertex 7.0710678118654755 -7.0710678118654755 0.0
    endloop
  endfacet
  facet normal 0.8164965809277259 0.0 -0.5773502691896257
    outer loop
      vertex 7.0710678118654755 7.0710678118654755 0.0
      vertex 7.0710678118654755 -7.0710678118654755 0.0
      vertex 0.0 0.0 -10.0
    endloop
  endfacet
  facet normal 0.0 0.8164965809277259 -0.5773502691896257
    outer loop
      vertex 7.0710678118654755 7.0710678118654755 0.0
      vertex 0.0 0.0 -10.0
      vertex -7.0710678118654755 7.0710678118654755 0.0
    endloop
  endfacet
  facet normal 0.0 0.8164965809277259 0.5773502691896258
    outer loop
      vertex 7.0710678118654755 7.0710678118654755 0.0
      vertex -7.0710678118654755 7.0710678118654755 0.0
      vertex 0.0 0.0 10.0
    endloop
  endfacet
endsolid v3d.csg
