solid v3d.csg
  facet normal -0.8164965809000000 0.0000000000000000 -0.5773502692000000
    outer loop
      vertex -7.0710678119000000 7.0710678119000000 0.0000000000000000
      vertex 0.0000000000000000 0.0000000000000000 -10.0000000000000000
      vertex -7.0710678119000000 -7.0710678119000000 0.0000000000000000
    endloop
  endfacet
  facet normal -0.8164965809000000 0.0000000000000000 0.5773502692000000
    outer loop
      vertex -7.0710678119000000 7.0710678119000000 0.0000000000000000
      vertex -7.0710678119000000 -7.0710678119000000 0.0000000000000000
      vertex 0.0000000000000000 0.0000000000000000 10.0000000000000000
    endloop
  endfacet
  facet normal 0.0000000000000000 -0.8164965809000000 0.5773502692000000
    outer loop
      vertex 7.0710678119000000 -7.0710678119000000 0.0000000000000000
      vertex 0.0000000000000000 0.0000000000000000 10.0000000000000000
      vertex -7.0710678119000000 -7.0710678119000000 0.0000000000000000
    endloop
  endfacet
  facet normal 0.0000000000000000 -0.8164965809000000 -0.5773502692000000
    outer loop
      vertex 7.0710678119000000 -7.0710678119000000 0.0000000000000000
      vertex -7.0710678119000000 -7.0710678119000000 0.0000000000000000
      vertex 0.0000000000000000 0.0000000000000000 -10.0000000000000000
    endloop
  endfacet
  facet normal 0.8164965809000000 0.0000000000000000 0.5773502692000000
    outer loop
      vertex 7.0710678119000000 7.0710678119000000 0.0000000000000000
      vertex 0.0000000000000000 0.0000000000000000 10.0000000000000000
      vertex 7.0710678119000000 -7.0710678119000000 0.0000000000000000
    endloop
  endfacet
  facet normal 0.8164965809000000 0.0000000000000000 -0.5773502692000000
    outer loop
      vertex 7.0710678119000000 7.0710678119000000 0.0000000000000000
      vertex 7.0710678119000000 -7.0710678119000000 0.0000000000000000
      vertex 0.0000000000000000 0.0000000000000000 -10.0000000000000000
    endloop
  endfacet
  facet normal 0.0000000000000000 0.8164965809000000 -0.5773502692000000
    outer loop
      vertex 7.0710678119000000 7.0710678119000000 0.0000000000000000
      vertex 0.0000000000000000 0.0000000000000000 -10.0000000000000000
      vertex -7.0710678119000000 7.0710678119000000 0.0000000000000000
    endloop
  endfacet
  facet normal 0.0000000000000000 0.8164965809000000 0.5773502692000000
    outer loop
      vertex 7.0710678119000000 7.0710678119000000 0.0000000000000000
      vertex -7.0710678119000000 7.0710678119000000 0.0000000000000000
      vertex 0.0000000000000000 0.0000000000000000 10.0000000000000000
    endloop
  endfacet
endsolid v3d.csg
