solid v3d.csg
  facet normal 0.0000000000000000 -0.8164965809000000 -0.5773502692000000
    outer loop
      vertex 5.7735026919000000 0.0000000000000000 -4.0824829046000000
      vertex 0.0000000000000000 -5.7735026919000000 4.0824829046000000
      vertex -5.7735026919000000 0.0000000000000000 -4.0824829046000000
    endloop
  endfacet
  facet normal 0.0000000000000000 0.8164965809000000 -0.5773502692000000
    outer loop
      vertex 0.0000000000000000 5.7735026919000000 4.0824829046000000
      vertex 5.7735026919000000 0.0000000000000000 -4.0824829046000000
      vertex -5.7735026919000000 0.0000000000000000 -4.0824829046000000
    endloop
  endfacet
  facet normal -0.8164965809000000 0.0000000000000000 0.5773502692000000
    outer loop
      vertex 0.0000000000000000 5.7735026919000000 4.0824829046000000
      vertex -5.7735026919000000 0.0000000000000000 -4.0824829046000000
      vertex 0.0000000000000000 -5.7735026919000000 4.0824829046000000
    endloop
  endfacet
  facet normal 0.8164965809000000 0.0000000000000000 0.5773502692000000
    outer loop
      vertex 0.0000000000000000 5.7735026919000000 4.0824829046000000
      vertex 0.0000000000000000 -5.7735026919000000 4.0824829046000000
      vertex 5.7735026919000000 0.0000000000000000 -4.0824829046000000
    endloop
  endfacet
endsolid v3d.csg
