solid v3d.csg
  facet normal 0.0 -0.816496580927726 -0.5773502691896258
    outer loop
      vertex 5.773502691896258 0.0 -4.08248290463863
      vertex 0.0 -5.773502691896258 4.08248290463863
      vertex -5.773502691896258 0.0 -4.08248290463863
    endloop
  endfacet
  facet normal 0.0 0.816496580927726 -0.5773502691896258
    outer loop
      vertex 0.0 5.773502691896258 4.08248290463863
      vertex 5.773502691896258 0.0 -4.08248290463863
      vertex -5.773502691896258 0.0 -4.08248290463863
    endloop
  endfacet
  facet normal -0.816496580927726 0.0 0.5773502691896258
    outer loop
      vertex 0.0 5.773502691896258 4.08248290463863
      vertex -5.773502691896258 0.0 -4.08248290463863
      vertex 0.0 -5.773502691896258 4.08248290463863
    endloop
  endfacet
  facet normal 0.816496580927726 0.0 0.5773502691896258
    outer loop
      vertex 0.0 5.773502691896258 4.08248290463863
      vertex 0.0 -5.773502691896258 4.08248290463863
      vertex 5.773502691896258 0.0 -4.08248290463863
    endloop
  endfacet
endsolid v3d.csg
