<?xml version="1.0" encoding="UTF-8" standalone="no"?>
<svg
   version="1.1"
   viewBox="0 0 100.0 100.0"
   id="svg2"
   width="28.222222912098783mm"
   height="28.222222912098783mm"
   sodipodi:docname="Part-Num-0.svg"
   xmlns:inkscape="http://www.inkscape.org/namespaces/inkscape"
   xmlns:sodipodi="http://sodipodi.sourceforge.net/DTD/sodipodi-0.dtd"
   xmlns="http://www.w3.org/2000/svg"
   xmlns:svg="http://www.w3.org/2000/svg">
  <defs
     id="defs4" />
  <sodipodi:namedview
     id="base"
     pagecolor="#ffffff"
     bordercolor="#666666"
     borderopacity="1.0"
     inkscape:pageopacity="0.0"
     inkscape:pageshadow="2"
     inkscape:document-units="mm"
     inkscape:current-layer="layer1"
     showgrid="false"
     inkscape:showpageshadow="2"
     inkscape:pagecheckerboard="0"
     inkscape:deskcolor="#d1d1d1" />
  <g
     inkscape:label="Slice 1"
     inkscape:groupmode="layer"
     id="layer1">
    <g
       id="g371">
      <polyline
         points="-179.85435161622974,222.6889986828964 -211.03545321622974,243.4763997495631 -219.53939001622973,249.6181318828964 -184.10632001622972,285.0512018828964 -155.75986401622973,313.3976578828964 -149.14569094956306,320.0118309495631 -144.89372254956308,313.3976578828964 -143.4763997495631,311.0354532162297 -132.6102582828964,295.44490241622975 -122.68899868289641,279.85435161622974 -135.4449038828964,266.15356454956304 -138.2795494828964,263.79135988289636 -179.85435161622974,222.6889986828964 "
         stroke="crimson"
         stroke-width="1"
         fill="none"
         id="line0" />
      <polyline
         points="-44.26380374956308,-111.79918211710364 -48.04333121622973,-130.6968194504369 -51.82285868289639,-149.59445678377026 -53.71262241622971,-159.51571638377033 -99.06695201622973,-140.61807905043693 -137.33466761622975,-125.02752825043692 -146.31104534956307,-121.24800078377027 -141.58663601622973,-114.63382771710357 -119.38191214956306,-81.5629623837703 -65.05120481622973,-103.29524531710362 -61.74411828289643,-104.71256811710364 -44.26380374956308,-111.79918211710364 "
         stroke="crimson"
         stroke-width="1"
         fill="none"
         id="line1" />
      <polyline
         points="-119.38191214956306,282.21655628289636 -128.83073081622973,295.9173433495631 -140.16931321622974,313.3976578828964 -141.58663601622973,315.2874216162297 -146.31104534956307,321.9015946828964 -144.89372254956308,322.3740356162298 -137.33466761622975,325.68112214956307 -62.68900014956309,356.38978281622974 -53.71262241622971,360.16931028289645 -52.29529961622974,352.13781441622973 -51.82285868289639,349.77560974956305 -49.93309494956306,341.271672949563 -44.26380374956308,312.92521694956304 -119.38191214956306,282.21655628289636 "
         stroke="crimson"
         stroke-width="1"
         fill="none"
         id="line2" />
      <polyline
         points="-40.956717216229734,313.3976578828964 -46.626008416229716,342.21655481622975 -48.04333121622973,350.72049161622976 -50.405535882896416,360.64175121622975 40.30312331710361,360.64175121622975 48.33461918377027,360.64175121622975 49.751941983770244,360.64175121622975 48.33461918377027,353.08269628289645 43.61020985043691,330.40553148289644 40.30312331710361,313.87009881622976 -40.956717216229734,313.3976578828964 "
         stroke="crimson"
         stroke-width="1"
         fill="none"
         id="line3" />
      <polyline
         points="43.61020985043691,312.45277601622973 47.38973731710361,331.35041334956304 51.16926478377027,349.77560974956305 53.53146945043695,360.16931028289645 98.88579905043694,341.271672949563 137.15351465043693,325.68112214956307 145.65745145043695,321.9015946828964 141.40548305043694,315.2874216162297 119.20075918377027,282.21655628289636 64.3976109171036,303.94883921622977 61.09052438377026,305.36616201622974 43.61020985043691,312.45277601622973 "
         stroke="crimson"
         stroke-width="1"
         fill="none"
         id="line4" />
      <polyline
         points="179.6731986504369,-22.03540478377026 210.85430025043692,-42.82280585043691 219.35823705043694,-48.96453798377024 183.45272611710362,-84.39760798377026 155.57871105043694,-112.74406398377025 148.49209705043694,-119.35823705043694 144.24012865043693,-112.74406398377025 142.8228058504369,-110.85430025043692 132.42910531710362,-94.7913085171036 122.03540478377026,-79.67319865043689 134.79130998377025,-65.97241158377028 137.62595558377024,-63.13776598377024 179.6731986504369,-22.03540478377026 "
         stroke="crimson"
         stroke-width="1"
         fill="none"
         id="line5" />
      <polyline
         points="40.30312331710361,-113.21650491710355 45.972414517103594,-141.56296091710354 47.86217825043692,-150.06689771710356 49.751941983770244,-160.46059825043693 -40.956717216229734,-160.46059825043693 -48.51577214956309,-160.46059825043693 -50.405535882896416,-160.46059825043693 -48.51577214956309,-152.4291023837703 -44.26380374956308,-129.75193758377029 -40.956717216229734,-113.21650491710355 40.30312331710361,-113.21650491710355 "
         stroke="crimson"
         stroke-width="1"
         fill="none"
         id="line6" />
      <polyline
         points="119.20075918377027,-81.5629623837703 128.6495778504369,-95.73619038377029 139.98816025043692,-112.74406398377025 141.40548305043694,-114.63382771710357 145.65745145043695,-121.24800078377027 144.24012865043693,-122.19288265043687 137.15351465043693,-125.02752825043692 62.03540625043692,-156.20862985043698 53.05902851710359,-159.51571638377033 51.64170571710357,-151.9566614504369 51.16926478377027,-149.59445678377026 49.751941983770244,-141.09051998377024 44.08265078377026,-112.27162305043694 119.20075918377027,-81.5629623837703 "
         stroke="crimson"
         stroke-width="1"
         fill="none"
         id="line7" />
      <polyline
         points="-212.45277601622973,144.26380374956307 -231.35041334956307,148.04333121622972 -249.77560974956307,151.8228586828964 -260.16931028289645,153.71262241622972 -241.27167294956305,199.06695201622972 -225.68112214956307,237.33466761622975 -221.9015946828964,246.31104534956307 -215.28742161622975,241.58663601622973 -182.2165562828964,219.38191214956305 -203.94883921622974,165.05120481622973 -205.36616201622977,161.74411828289644 -212.45277601622973,144.26380374956307 "
         stroke="crimson"
         stroke-width="1"
         fill="none"
         id="line8" />
      <polyline
         points="-122.68899868289641,-79.67319865043689 -143.4763997495631,-110.85430025043692 -149.6181318828964,-119.35823705043694 -185.05120188289638,-83.45272611710362 -220.01183094956306,-48.49209705043694 -211.03545321622974,-42.82280585043691 -195.44490241622975,-32.42910531710362 -179.85435161622974,-22.03540478377026 -166.15356454956307,-34.79130998377025 -163.7913598828964,-37.625955583770235 -122.68899868289641,-79.67319865043689 "
         stroke="crimson"
         stroke-width="1"
         fill="none"
         id="line9" />
      <polyline
         points="-213.39765788289643,59.69687668289639 -242.21655481622972,54.027585482896406 -250.72049161622974,52.13782174956308 -260.64175121622975,50.248058016229756 -260.64175121622975,140.95671721622972 -260.64175121622975,148.51577214956308 -260.64175121622975,150.4055358828964 -253.08269628289642,148.51577214956308 -230.4055314828964,144.26380374956307 -213.87009881622973,140.95671721622972 -213.39765788289643,59.69687668289639 "
         stroke="crimson"
         stroke-width="1"
         fill="none"
         id="line10" />
      <polyline
         points="-182.2165562828964,-19.200759183770273 -195.91734334956308,-28.649577850436913 -215.28742161622975,-41.40548305043694 -221.9015946828964,-45.65745145043695 -222.37403561622975,-44.24012865043693 -225.68112214956307,-37.15351465043693 -256.38978281622974,37.96459374956308 -260.16931028289645,46.94097148289641 -252.1378144162297,48.35829428289643 -249.77560974956307,48.83073521622973 -241.27167294956305,50.248058016229756 -212.92521694956307,55.91734921622974 -182.2165562828964,-19.200759183770273 "
         stroke="crimson"
         stroke-width="1"
         fill="none"
         id="line11" />
      <polyline
         points="122.03540478377026,279.85435161622974 142.8228058504369,311.0354532162297 148.96453798377024,319.53939001622973 184.39760798377026,284.1063200162297 219.35823705043694,249.14569094956306 210.85430025043692,243.4763997495631 194.7913085171036,232.6102582828964 179.6731986504369,222.6889986828964 165.97241158377028,235.4449038828964 163.13776598377024,238.2795494828964 122.03540478377026,279.85435161622974 "
         stroke="crimson"
         stroke-width="1"
         fill="none"
         id="line12" />
      <polyline
         points="211.79918211710364,56.38979014956309 230.6968194504369,52.61026268289639 249.59445678377026,48.83073521622973 259.5157163837703,46.46853054956305 240.61807905043693,1.114200949563056 225.02752825043692,-37.15351465043693 221.24800078377027,-45.65745145043695 214.63382771710357,-41.40548305043694 181.5629623837703,-19.200759183770273 203.29524531710362,35.602389082896394 204.71256811710364,38.90947561622974 211.79918211710364,56.38979014956309 "
         stroke="crimson"
         stroke-width="1"
         fill="none"
         id="line13" />
      <polyline
         points="181.5629623837703,219.38191214956305 195.7361903837703,228.83073081622973 214.63382771710357,241.58663601622973 221.24800078377027,246.31104534956307 222.19288265043687,244.89372254956308 225.02752825043692,237.33466761622975 259.5157163837703,153.71262241622972 249.59445678377026,151.8228586828964 241.09051998377024,149.93309494956307 212.27162305043694,144.26380374956307 181.5629623837703,219.38191214956305 "
         stroke="crimson"
         stroke-width="1"
         fill="none"
         id="line14" />
      <polyline
         points="213.21650491710355,140.95671721622972 241.56296091710354,146.62600841622972 250.06689771710356,148.04333121622972 252.4291023837703,148.51577214956308 260.46059825043693,150.4055358828964 260.46059825043693,140.95671721622972 260.46059825043693,59.69687668289639 260.46059825043693,51.66538081622973 260.46059825043693,50.248058016229756 252.4291023837703,51.66538081622973 229.75193758377029,56.38979014956309 213.21650491710355,59.69687668289639 213.21650491710355,140.95671721622972 "
         stroke="crimson"
         stroke-width="1"
         fill="none"
         id="line15" />
    </g>
  </g>
  <g
     inkscape:label="Slice 2"
     inkscape:groupmode="layer"
     id="layer2" />
</svg>
